<?xml version="1.0" standalone="no"?><!DOCTYPE svg PUBLIC "-//W3C//DTD SVG 1.1//EN" "http://www.w3.org/Graphics/SVG/1.1/DTD/svg11.dtd"><svg t="1652360562096" class="icon" viewBox="0 0 1024 1024" version="1.1" xmlns="http://www.w3.org/2000/svg" p-id="2469" xmlns:xlink="http://www.w3.org/1999/xlink" width="200" height="200"><defs><style type="text/css">@font-face { font-family: feedback-iconfont; src: url("//at.alicdn.com/t/font_1031158_u69w8yhxdu.woff2?t=1630033759944") format("woff2"), url("//at.alicdn.com/t/font_1031158_u69w8yhxdu.woff?t=1630033759944") format("woff"), url("//at.alicdn.com/t/font_1031158_u69w8yhxdu.ttf?t=1630033759944") format("truetype"); }
</style></defs><path d="M465.454545 0l0 93.090909L26.949818 93.090909C26.949818 93.090909 0 93.090909 0 116.363636 0 139.636364 26.949818 139.636364 26.949818 139.636364l970.100364 0C997.050182 139.636364 1024 139.636364 1024 116.363636 1024 93.090909 997.050182 93.090909 997.050182 93.090909L558.545455 93.090909 558.545455 0 465.454545 0z" p-id="2470" fill="#7D7B7B"></path><path d="M232.727273 605.090909l46.545455 0 0 46.545455-46.545455 0 0-46.545455Z" p-id="2471" fill="#7D7B7B"></path><path d="M325.818182 744.727273l418.909091 0 0 46.545455-418.909091 0 0-46.545455Z" p-id="2472" fill="#7D7B7B"></path><path d="M232.727273 744.727273l46.545455 0 0 46.545455-46.545455 0 0-46.545455Z" p-id="2473" fill="#7D7B7B"></path><path d="M232.727273 465.454545l46.545455 0 0 46.545455-46.545455 0 0-46.545455Z" p-id="2474" fill="#7D7B7B"></path><path d="M156.066909 186.181818C156.066909 186.181818 46.545455 186.181818 46.545455 292.584727l0 531.968C46.545455 930.909091 156.066909 930.909091 156.066909 930.909091l711.866182 0c0 0 109.521455 0 109.521455-106.402909L977.454545 292.584727C977.454545 186.181818 867.933091 186.181818 867.933091 186.181818L156.066909 186.181818zM930.909091 287.045818l0 543.045818C930.909091 884.363636 875.054545 884.363636 875.054545 884.363636L148.945455 884.363636c0 0-55.854545 0-55.854545-54.318545L93.090909 287.045818C93.090909 232.727273 148.945455 232.727273 148.945455 232.727273l726.109091 0C875.054545 232.727273 930.909091 232.727273 930.909091 287.045818z" p-id="2475" fill="#7D7B7B"></path><path d="M26.949818 1024l970.100364 0c0 0 26.949818 0 26.949818-23.272727 0-23.272727-26.949818-23.272727-26.949818-23.272727L26.949818 977.454545C26.949818 977.454545 0 977.454545 0 1000.727273 0 1024 26.949818 1024 26.949818 1024z" p-id="2476" fill="#7D7B7B"></path><path d="M325.818182 605.090909l418.909091 0 0 46.545455-418.909091 0 0-46.545455Z" p-id="2477" fill="#7D7B7B"></path><path d="M325.818182 465.454545l418.909091 0 0 46.545455-418.909091 0 0-46.545455Z" p-id="2478" fill="#7D7B7B"></path><path d="M186.181818 325.818182l651.636364 0 0 46.545455-651.636364 0 0-46.545455Z" p-id="2479" fill="#7D7B7B"></path></svg>