<?xml version="1.0" standalone="no"?><!DOCTYPE svg PUBLIC "-//W3C//DTD SVG 1.1//EN" "http://www.w3.org/Graphics/SVG/1.1/DTD/svg11.dtd"><svg t="1652360522486" class="icon" viewBox="0 0 1024 1024" version="1.1" xmlns="http://www.w3.org/2000/svg" p-id="2265" xmlns:xlink="http://www.w3.org/1999/xlink" width="200" height="200"><defs><style type="text/css">@font-face { font-family: feedback-iconfont; src: url("//at.alicdn.com/t/font_1031158_u69w8yhxdu.woff2?t=1630033759944") format("woff2"), url("//at.alicdn.com/t/font_1031158_u69w8yhxdu.woff?t=1630033759944") format("woff"), url("//at.alicdn.com/t/font_1031158_u69w8yhxdu.ttf?t=1630033759944") format("truetype"); }
</style></defs><path d="M513.4 961.3c-211.8 0-384.2-172.3-384.2-384.2S301.6 193 513.4 193s384.2 172.3 384.2 384.2-172.4 384.1-384.2 384.1z m0-746.7c-199.9 0-362.5 162.6-362.5 362.5s162.6 362.5 362.5 362.5S875.9 777 875.9 577.1 713.3 214.6 513.4 214.6z" fill="#7D7B7B" p-id="2266"></path><path d="M785.8 527.2c-4.3 0-8.5-1.2-12.3-3.8L650 440.9l-124 82.5c-7.8 5.2-17.7 5-25.3-0.5-7.6-5.5-10.8-14.9-8.3-23.9l40.3-142.9L416 263.6c-7.4-5.8-10.2-15.3-7.4-24.2 2.9-8.9 10.8-14.9 20.2-15.3l148.4-5.8L629 78.7c3.2-8.8 11.4-14.5 20.8-14.5s17.5 5.7 20.8 14.5L721.9 218l148.8 6.1c9.4 0.4 17.3 6.4 20.2 15.3 2.9 8.9 0 18.4-7.3 24.2l-116.6 92L807.1 499c2.5 9-0.7 18.4-8.3 23.9-3.9 2.8-8.4 4.3-13 4.3z m-136-108c4.3 0 8.6 1.2 12.3 3.7l123.5 82.5L745.9 362c-2.4-8.7 0.6-17.9 7.6-23.4l116.6-91.9-148.6-6.7c-9-0.3-16.8-6-19.9-14.4L650.2 86.2l-0.1-0.2-52.2 139.5c-3.1 8.4-10.9 14.1-19.9 14.5l-148.4 5.8L546 338.6c7.1 5.5 10 14.7 7.6 23.4l-40.3 142.9 124.2-82c3.7-2.5 8-3.7 12.3-3.7z" fill="#7D7B7B" p-id="2267"></path></svg>