<?xml version="1.0" standalone="no"?><!DOCTYPE svg PUBLIC "-//W3C//DTD SVG 1.1//EN" "http://www.w3.org/Graphics/SVG/1.1/DTD/svg11.dtd"><svg t="1652360688060" class="icon" viewBox="0 0 1024 1024" version="1.1" xmlns="http://www.w3.org/2000/svg" p-id="3708" xmlns:xlink="http://www.w3.org/1999/xlink" width="200" height="200"><defs><style type="text/css">@font-face { font-family: feedback-iconfont; src: url("//at.alicdn.com/t/font_1031158_u69w8yhxdu.woff2?t=1630033759944") format("woff2"), url("//at.alicdn.com/t/font_1031158_u69w8yhxdu.woff?t=1630033759944") format("woff"), url("//at.alicdn.com/t/font_1031158_u69w8yhxdu.ttf?t=1630033759944") format("truetype"); }
</style></defs><path d="M895.1296 485.888a384 384 0 1 0-149.9136 331.2128 25.6 25.6 0 0 1 31.1296 40.6528 435.2 435.2 0 1 1 168.9088-387.328l21.504-21.504a25.6 25.6 0 0 1 36.1984 36.1984l-72.3968 72.3968a25.4976 25.4976 0 0 1-36.1984 0l-72.3968-72.3968a25.6 25.6 0 0 1 36.1984-36.1984l36.9664 36.9664z m-225.0752-2.56a35.84 35.84 0 0 1 0 57.344l-177.5104 133.12a35.84 35.84 0 0 1-57.344-28.672V378.88a35.84 35.84 0 0 1 57.344-28.672l177.5104 133.12zM486.4 409.6v204.8l136.5504-102.4L486.4 409.6z" fill="#5087EC" p-id="3709"></path></svg>