<?xml version="1.0" standalone="no"?><!DOCTYPE svg PUBLIC "-//W3C//DTD SVG 1.1//EN" "http://www.w3.org/Graphics/SVG/1.1/DTD/svg11.dtd"><svg t="1652360665815" class="icon" viewBox="0 0 1032 1024" version="1.1" xmlns="http://www.w3.org/2000/svg" p-id="3300" xmlns:xlink="http://www.w3.org/1999/xlink" width="201.5625" height="200"><defs><style type="text/css">@font-face { font-family: feedback-iconfont; src: url("//at.alicdn.com/t/font_1031158_u69w8yhxdu.woff2?t=1630033759944") format("woff2"), url("//at.alicdn.com/t/font_1031158_u69w8yhxdu.woff?t=1630033759944") format("woff"), url("//at.alicdn.com/t/font_1031158_u69w8yhxdu.ttf?t=1630033759944") format("truetype"); }
</style></defs><path d="M655.370377 266.246918a68.269549 68.269549 0 0 1 68.269549 68.269549v354.967066a68.269549 68.269549 0 1 1-136.539098 0v-354.967066a68.269549 68.269549 0 0 1 68.269549-68.269549z m-286.719136 0a68.269549 68.269549 0 0 1 68.269549 68.269549v354.967066a68.269549 68.269549 0 1 1-136.539098 0v-354.967066a68.269549 68.269549 0 0 1 68.269549-68.269549z" p-id="3301" fill="#5087EC"></path><path d="M512 1024C229.236953 1024 0 794.784665 0 512 0 229.236953 229.236953 0 512 0c282.763047 0 512 229.236953 512 512 0 282.763047-229.215335 512-512 512z m0-27.303496c267.695322 0 484.696504-217.001182 484.696504-484.674886 0-267.71694-217.001182-484.718122-484.674886-484.718122-267.71694 0-484.718122 217.001182-484.718122 484.696504s217.001182 484.696504 484.696504 484.696504z" p-id="3302" fill="#5087EC"></path></svg>